<?xml version="1.0" encoding="utf-8"?>
<!-- Generator: Adobe Illustrator 25.4.1, SVG Export Plug-In . SVG Version: 6.00 Build 0)  -->
<svg version="1.1" id="layer" xmlns="http://www.w3.org/2000/svg" xmlns:xlink="http://www.w3.org/1999/xlink" x="0px" y="0px"
	 viewBox="0 0 652 652" style="enable-background:new 0 0 652 652;" xml:space="preserve">
<style type="text/css">
	.st0{fill:#FF4655;}
	.st1{fill:#111111;}
</style>
<rect x="0" class="st0" width="652" height="652"/>
<g>
	<g>
		<path class="st1" d="M455.5,357.5V265c0-1.4-1.8-2-2.7-1l-101,126.2c-0.8,1-0.1,2.5,1.2,2.5h73c2,0,3.8-1,5-2.5l23.1-28.8
			C454.9,360.5,455.5,359.1,455.5,357.5L455.5,357.5z M219.3,361.7l75.8,94.8c1.2,1.5,3.1,2.4,5.1,2.4h73c1.3,0,2-1.4,1.2-2.4
			L220.5,264.2c-1-1.1-2.7-0.5-2.7,1v92.5C217.9,359.1,218.3,360.5,219.3,361.7L219.3,361.7z"/>
	</g>
</g>
<g>
	<path class="st1" d="M517.8,514.3h17v52.1c0,0.7,0.6,1.2,1.2,1.2h9.7c0.7,0,1.2-0.6,1.2-1.2v-52.1h21.4c0.6,0,1-0.7,0.6-1.2
		l-7.4-9.2c-0.6-0.7-1.5-1.2-2.5-1.2h-41.4c-0.7,0-1.2,0.6-1.2,1.2v9.2C516.6,513.8,517,514.3,517.8,514.3 M106.9,566.5l49.9-62.5
		c0.4-0.5,0-1.2-0.6-1.2h-12.4c-1,0-1.9,0.5-2.5,1.2L106,548.3V504c0-0.7-0.6-1.2-1.2-1.2H95c-0.7,0-1.2,0.6-1.2,1.2v62.5
		c0,0.7,0.6,1.2,1.2,1.2h9.5C105.4,567.7,106.3,567.2,106.9,566.5 M142.2,566.5l17.1-21.5l17.2,21.5c0.6,0.7,1.5,1.2,2.5,1.2h9.5
		c0.7,0,1.2-0.6,1.2-1.2V504c0-0.7-0.6-1.2-1.2-1.2h-8c-1.9,0-3.8,0.8-5,2.4l-49,61.3c-0.4,0.5,0,1.2,0.6,1.2h12.4
		C140.7,567.7,141.5,567.2,142.2,566.5 M177.6,520.9v28.8l-11.5-14.4L177.6,520.9z M456.3,566.5L406.4,504c-0.6-0.7-1.5-1.2-2.5-1.2
		h-9.5c-0.7,0-1.2,0.6-1.2,1.2v62.5c0,0.7,0.6,1.2,1.2,1.2h9.5c1,0,1.9-0.5,2.5-1.2l17.2-21.5l17.1,21.5c0.6,0.7,1.5,1.2,2.5,1.2
		h12.5C456.4,567.7,456.8,567,456.3,566.5 M416.9,535.3l-11.5,14.4v-28.8L416.9,535.3z M279.5,501.2c-18.8,0-34.1,15.2-34.1,34.1
		c0,18.8,15.2,34.1,34.1,34.1c18.8,0,34.1-15.2,34.1-34.1C313.6,516.4,298.3,501.2,279.5,501.2 M279.5,557.7
		c-12.1,0-21.9-10.1-21.9-22.5c0-12.5,9.7-22.5,21.9-22.5s21.9,10.1,21.9,22.5S291.6,557.7,279.5,557.7 M495.9,504v44.3L460.5,504
		c-0.6-0.7-1.5-1.2-2.5-1.2h-9.5c-0.7,0-1.2,0.6-1.2,1.2v30.1c0,0.7,0.2,1.4,0.7,2l10.1,12.7c0.5,0.6,1.3,0.2,1.3-0.5v-26.1
		l35.4,44.3c0.6,0.7,1.5,1.2,2.5,1.2h9.5c0.7,0,1.2-0.6,1.2-1.2V504c0-0.7-0.6-1.2-1.2-1.2h-9.7C496.5,502.8,495.9,503.3,495.9,504
		 M376.8,517.6V504c0-0.7-0.6-1.2-1.2-1.2h-49.9c-0.7,0-1.2,0.6-1.2,1.2v62.5c0,0.7,0.6,1.2,1.2,1.2h9.7c0.7,0,1.2-0.6,1.2-1.2
		v-52.1h27.9L345.6,538c-0.4,0.5-0.4,1.1,0,1.5l21.5,27c0.6,0.7,1.5,1.2,2.5,1.2h12.5c0.6,0,1-0.7,0.6-1.2l-22-27.9l15.3-19.3
		C376.6,519,376.8,518.3,376.8,517.6 M205.7,567.7h28.9c1,0,1.9-0.5,2.5-1.2l7.2-9.2c0.4-0.5,0-1.2-0.6-1.2h-27.1V504
		c0-0.7-0.6-1.2-1.2-1.2h-9.7c-0.7,0-1.2,0.6-1.2,1.2v62.5C204.5,567.1,205,567.7,205.7,567.7"/>
</g>
</svg>
